<?xml version="1.0" encoding="UTF-8" standalone="no"?>
<svg width="108px" height="40px" viewBox="0 0 108 40" version="1.1" xmlns="http://www.w3.org/2000/svg" xmlns:xlink="http://www.w3.org/1999/xlink" xmlns:sketch="http://www.bohemiancoding.com/sketch/ns">
    <!-- Generator: Sketch 3.4.3 (16044) - http://www.bohemiancoding.com/sketch -->
    <title>Logo</title>
    <desc>Created with Sketch.</desc>
    <defs>
        <path id="path-1" d="M0,0.210857143 L107.674286,0.210857143 L107.674286,40 L0,40 L0,0.210857143 Z"></path>
    </defs>
    <g id="Home-Page" stroke="none" stroke-width="1" fill="none" fill-rule="evenodd" sketch:type="MSPage">
        <g id="Dashboard" sketch:type="MSArtboardGroup" transform="translate(-150.000000, -30.000000)">
            <g id="Hero" sketch:type="MSLayerGroup">
                <g id="Header-Content" transform="translate(150.000000, 30.000000)">
                    <g id="Logo">
                        <path d="M47.9189143,23.8452571 C48.7263429,24.7361143 49.6652,25.1812571 50.7337714,25.1812571 C52.0880571,25.1812571 52.9903429,24.5755429 53.4423429,23.3641143 C53.5846286,22.9606857 53.6560571,22.4972571 53.6560571,21.9744 C53.6560571,20.9532571 53.3823429,20.1515429 52.8360571,19.5692571 C52.3132,19.0349714 51.6126286,18.7675429 50.7337714,18.7675429 C49.6652,18.7675429 48.7263429,19.2126857 47.9189143,20.1035429 L47.9189143,23.8452571 Z M47.9189143,18.6075429 C48.7977714,17.7046857 49.8132,17.2532571 50.9657714,17.2532571 C52.1177714,17.2532571 53.1034857,17.6629714 53.9229143,18.4824 C54.8257714,19.3852571 55.2772,20.5492571 55.2772,21.9744 C55.2772,23.4235429 54.8257714,24.5932571 53.9229143,25.4841143 C53.0914857,26.2921143 52.1029143,26.6961143 50.9566286,26.6961143 C49.8103429,26.6961143 48.7977714,26.2441143 47.9189143,25.3418286 L47.9189143,25.8046857 C47.9189143,26.0309714 47.8417714,26.2206857 47.6874857,26.3749714 C47.5326286,26.5292571 47.3400571,26.6064 47.1080571,26.6064 C46.8766286,26.6064 46.6834857,26.5292571 46.5292,26.3749714 C46.3749143,26.2206857 46.2977714,26.0309714 46.2977714,25.8046857 L46.2977714,14.2424 C46.2977714,14.0046857 46.3749143,13.8086857 46.5292,13.6544 C46.6834857,13.5001143 46.8766286,13.4229714 47.1080571,13.4229714 C47.3400571,13.4229714 47.5326286,13.5001143 47.6874857,13.6544 C47.8417714,13.8086857 47.9189143,14.0046857 47.9189143,14.2424 L47.9189143,18.6075429 Z" id="Fill-1" fill="#FFFFFF" sketch:type="MSShapeGroup"></path>
                        <path d="M57.1906286,13.6543429 C57.3449143,13.5000571 57.5380571,13.4229143 57.7700571,13.4229143 C58.0014857,13.4229143 58.1940571,13.5000571 58.3483429,13.6543429 C58.5026286,13.8086286 58.5803429,14.0046286 58.5803429,14.2423429 L58.5803429,25.8052 C58.5803429,26.0309143 58.5026286,26.2212 58.3483429,26.3749143 C58.1940571,26.5292 58.0014857,26.6069143 57.7700571,26.6069143 C57.5380571,26.6069143 57.3449143,26.5292 57.1906286,26.3749143 C57.0363429,26.2212 56.9592,26.0309143 56.9592,25.8052 L56.9592,14.2423429 C56.9592,14.0046286 57.0363429,13.8086286 57.1906286,13.6543429" id="Fill-3" fill="#FFFFFF" sketch:type="MSShapeGroup"></path>
                        <path d="M62.8364,24.4777143 C63.1158286,24.7331429 63.4301143,24.92 63.7809714,25.0388571 C64.1312571,25.1577143 64.4758286,25.2171429 64.8141143,25.2171429 C65.1529714,25.2171429 65.4969714,25.1577143 65.8478286,25.0388571 C66.1975429,24.92 66.5158286,24.736 66.8009714,24.4862857 C67.4421143,23.9045714 67.7626857,23.0611429 67.7626857,21.9565714 C67.7626857,20.888 67.4421143,20.0565714 66.8009714,19.4622857 C66.2661143,18.9754286 65.6066857,18.732 64.8226857,18.732 C63.5404,18.732 62.6495429,19.308 62.1506857,20.46 C61.9724,20.876 61.8838286,21.3777143 61.8838286,21.9657143 C61.8838286,22.5537143 61.9724,23.0554286 62.1506857,23.4708571 C62.3284,23.8868571 62.5569714,24.2222857 62.8364,24.4777143 M64.8226857,17.2531429 C66.2009714,17.2531429 67.3055429,17.6868571 68.1369714,18.5537143 C68.9684,19.4325714 69.3844,20.5731429 69.3844,21.9742857 C69.3844,23.376 68.9684,24.516 68.1369714,25.3948571 C67.3055429,26.2622857 66.2009714,26.696 64.8226857,26.696 C63.4335429,26.696 62.3284,26.2622857 61.5089714,25.3948571 C60.6775429,24.5285714 60.2621143,23.388 60.2621143,21.9742857 C60.2621143,20.5611429 60.6775429,19.4211429 61.5089714,18.5537143 C62.3284,17.6868571 63.4335429,17.2531429 64.8226857,17.2531429" id="Fill-5" fill="#FFFFFF" sketch:type="MSShapeGroup"></path>
                        <path d="M75.3629714,25.1811429 C76.0281143,25.1811429 76.6635429,25.0154286 77.2692571,24.6822857 C77.4835429,24.564 77.6726857,24.5045714 77.8395429,24.5045714 C78.0058286,24.5045714 78.1544,24.5817143 78.2852571,24.736 C78.4155429,24.8902857 78.4812571,25.0748571 78.4812571,25.288 C78.4812571,25.5017143 78.3441143,25.6982857 78.0709714,25.8765714 C77.2275429,26.4228571 76.2778286,26.696 75.2206857,26.696 C73.9018286,26.696 72.7909714,26.28 71.8892571,25.4485714 C70.9384,24.5697143 70.4635429,23.4114286 70.4635429,21.9742857 C70.4635429,20.5377143 70.9384,19.3794286 71.8892571,18.5005714 C72.7909714,17.6691429 73.9018286,17.2531429 75.2206857,17.2531429 C75.9332571,17.2531429 76.5178286,17.3451429 76.9755429,17.5291429 C77.4326857,17.7137143 77.7978286,17.8942857 78.0709714,18.0725714 C78.3441143,18.2508571 78.4812571,18.4468571 78.4812571,18.6605714 C78.4812571,18.8742857 78.4155429,19.0588571 78.2852571,19.2131429 C78.1544,19.3674286 78.0235429,19.4445714 77.8926857,19.4445714 C77.6904,19.4445714 77.4835429,19.3851429 77.2692571,19.2662857 C76.6635429,18.9342857 76.0281143,18.7674286 75.3629714,18.7674286 C74.3172571,18.7674286 73.5104,19.0617143 72.9401143,19.6497143 C72.3698286,20.2371429 72.0846857,21.0125714 72.0846857,21.9742857 C72.0846857,22.9365714 72.3698286,23.7114286 72.9401143,24.2994286 C73.5104,24.8874286 74.3172571,25.1811429 75.3629714,25.1811429" id="Fill-7" fill="#FFFFFF" sketch:type="MSShapeGroup"></path>
                        <path d="M81.5238857,23.8452571 C82.3313143,24.7361143 83.2696,25.1812571 84.3387429,25.1812571 C85.6930286,25.1812571 86.5953143,24.5755429 87.0473143,23.3641143 C87.1896,22.9606857 87.2604571,22.4972571 87.2604571,21.9744 C87.2604571,20.9532571 86.9873143,20.1515429 86.4410286,19.5692571 C85.9181714,19.0349714 85.2176,18.7675429 84.3387429,18.7675429 C83.2696,18.7675429 82.3313143,19.2126857 81.5238857,20.1035429 L81.5238857,23.8452571 Z M81.5238857,18.6075429 C82.4027429,17.7046857 83.4181714,17.2532571 84.5707429,17.2532571 C85.7227429,17.2532571 86.7084571,17.6629714 87.5278857,18.4824 C88.4307429,19.3852571 88.8821714,20.5492571 88.8821714,21.9744 C88.8821714,23.4235429 88.4307429,24.5932571 87.5278857,25.4841143 C86.6964571,26.2921143 85.7078857,26.6961143 84.5616,26.6961143 C83.4153143,26.6961143 82.4027429,26.2441143 81.5238857,25.3418286 L81.5238857,25.8046857 C81.5238857,26.0309714 81.4461714,26.2206857 81.2924571,26.3749714 C81.1376,26.5292571 80.9444571,26.6064 80.7130286,26.6064 C80.4816,26.6064 80.2884571,26.5292571 80.1341714,26.3749714 C79.9798857,26.2206857 79.9027429,26.0309714 79.9027429,25.8046857 L79.9027429,14.2424 C79.9027429,14.0046857 79.9798857,13.8086857 80.1341714,13.6544 C80.2884571,13.5001143 80.4816,13.4229714 80.7130286,13.4229714 C80.9444571,13.4229714 81.1376,13.5001143 81.2924571,13.6544 C81.4461714,13.8086857 81.5238857,14.0046857 81.5238857,14.2424 L81.5238857,18.6075429 Z" id="Fill-9" fill="#FFFFFF" sketch:type="MSShapeGroup"></path>
                        <path d="M92.5522286,24.4777143 C92.8310857,24.7331429 93.1459429,24.92 93.4962286,25.0388571 C93.8465143,25.1577143 94.1910857,25.2171429 94.5299429,25.2171429 C94.8682286,25.2171429 95.2128,25.1577143 95.5630857,25.0388571 C95.9133714,24.92 96.2316571,24.736 96.5162286,24.4862857 C97.1579429,23.9045714 97.4785143,23.0611429 97.4785143,21.9565714 C97.4785143,20.888 97.1579429,20.0565714 96.5162286,19.4622857 C95.9819429,18.9754286 95.3225143,18.732 94.5385143,18.732 C93.2562286,18.732 92.3653714,19.308 91.8659429,20.46 C91.6882286,20.876 91.5990857,21.3777143 91.5990857,21.9657143 C91.5990857,22.5537143 91.6882286,23.0554286 91.8659429,23.4708571 C92.0442286,23.8868571 92.2728,24.2222857 92.5522286,24.4777143 M94.5385143,17.2531429 C95.9162286,17.2531429 97.0208,17.6868571 97.8528,18.5537143 C98.6836571,19.4325714 99.0996571,20.5731429 99.0996571,21.9742857 C99.0996571,23.376 98.6836571,24.516 97.8528,25.3948571 C97.0208,26.2622857 95.9162286,26.696 94.5385143,26.696 C93.1493714,26.696 92.0442286,26.2622857 91.2248,25.3948571 C90.3933714,24.5285714 89.9779429,23.388 89.9779429,21.9742857 C89.9779429,20.5611429 90.3933714,19.4211429 91.2248,18.5537143 C92.0442286,17.6868571 93.1493714,17.2531429 94.5385143,17.2531429" id="Fill-11" fill="#FFFFFF" sketch:type="MSShapeGroup"></path>
                        <path d="M107.461029,25.2703429 C107.591314,25.4246286 107.656457,25.6000571 107.656457,25.7960571 C107.656457,25.9920571 107.588457,26.1766286 107.451886,26.3480571 C107.315314,26.5206286 107.1136,26.6069143 106.846171,26.6069143 C106.578743,26.6069143 106.367886,26.4994857 106.2136,26.2857714 L103.683886,23.2572 L101.296457,26.2503429 C101.118171,26.4880571 100.898171,26.6069143 100.637029,26.6069143 C100.375886,26.6069143 100.177029,26.5320571 100.040457,26.3840571 C99.9038857,26.2354857 99.8353143,26.0543429 99.8353143,25.8406286 C99.8353143,25.6263429 99.8947429,25.4423429 100.0136,25.2880571 L102.774743,22.0280571 L100.0136,18.6606286 C99.8827429,18.4943429 99.8176,18.3040571 99.8176,18.0903429 C99.8176,17.8766286 99.8947429,17.6983429 100.049029,17.5560571 C100.203314,17.4137714 100.408457,17.3423429 100.663886,17.3423429 C100.919314,17.3423429 101.118171,17.4434857 101.260457,17.6452 L103.755314,20.7274857 L106.231886,17.6452 C106.374171,17.4434857 106.572457,17.3423429 106.827886,17.3423429 C107.083314,17.3423429 107.288457,17.4166286 107.442743,17.5646286 C107.5976,17.7137714 107.674171,17.8857714 107.674171,18.0817714 C107.674171,18.2777714 107.615314,18.4532 107.496457,18.6074857 L104.6816,21.9212 L107.461029,25.2703429 Z" id="Fill-13" fill="#FFFFFF" sketch:type="MSShapeGroup"></path>
                        <g id="Group-17">
                            <mask id="mask-2" sketch:name="Clip 16" fill="white">
                                <use xlink:href="#path-1"></use>
                            </mask>
                            <g id="Clip-16"></g>
                            <path d="M3.38628571,1.90411429 C2.45257143,1.90411429 1.69314286,2.66354286 1.69314286,3.59725714 L1.69314286,36.6138286 C1.69314286,37.5475429 2.45257143,38.3069714 3.38628571,38.3069714 L36.4028571,38.3069714 C37.3365714,38.3069714 38.096,37.5475429 38.096,36.6138286 L38.096,3.59725714 C38.096,2.66354286 37.3365714,1.90411429 36.4028571,1.90411429 L3.38628571,1.90411429 Z M36.4028571,40.0001143 L3.38628571,40.0001143 C1.51885714,40.0001143 0,38.4806857 0,36.6138286 L0,3.59725714 C0,1.72982857 1.51885714,0.210971429 3.38628571,0.210971429 L36.4028571,0.210971429 C38.2697143,0.210971429 39.7891429,1.72982857 39.7891429,3.59725714 L39.7891429,36.6138286 C39.7891429,38.4806857 38.2697143,40.0001143 36.4028571,40.0001143 L36.4028571,40.0001143 Z" id="Fill-15" fill="#FFFFFF" sketch:type="MSShapeGroup" mask="url(#mask-2)"></path>
                        </g>
                        <path d="M14.8637143,26.7462857 C16.2802857,28.3085714 17.9254286,29.0897143 19.8008571,29.0897143 C22.1757143,29.0897143 23.7591429,28.0274286 24.5505714,25.9022857 C24.8008571,25.1948571 24.926,24.3822857 24.926,23.4651429 C24.926,21.6737143 24.446,20.2674286 23.4882857,19.2462857 C22.5711429,18.3085714 21.342,17.84 19.8008571,17.84 C17.9254286,17.84 16.2802857,18.6211429 14.8637143,20.1834286 L14.8637143,26.7462857 Z M14.8637143,17.5588571 C16.4048571,15.976 18.1865714,15.184 20.2071429,15.184 C22.2277143,15.184 23.9568571,15.9022857 25.3945714,17.34 C26.9774286,18.9234286 27.7694286,20.9651429 27.7694286,23.4651429 C27.7694286,26.0068571 26.9774286,28.0588571 25.3945714,29.6211429 C23.9357143,31.0382857 22.2014286,31.7457143 20.1917143,31.7457143 C18.1808571,31.7457143 16.4048571,30.9542857 14.8637143,29.3708571 L14.8637143,30.1834286 C14.8637143,30.5794286 14.7277143,30.9125714 14.4574286,31.1834286 C14.186,31.4542857 13.8477143,31.5897143 13.442,31.5897143 C13.0357143,31.5897143 12.6968571,31.4542857 12.426,31.1834286 C12.1551429,30.9125714 12.0197143,30.5794286 12.0197143,30.1834286 L12.0197143,9.90285714 C12.0197143,9.48685714 12.1551429,9.14285714 12.426,8.872 C12.6968571,8.60114286 13.0357143,8.46514286 13.442,8.46514286 C13.8477143,8.46514286 14.186,8.60114286 14.4574286,8.872 C14.7277143,9.14285714 14.8637143,9.48685714 14.8637143,9.90285714 L14.8637143,17.5588571 Z" id="Fill-18" fill="#FFFFFF" sketch:type="MSShapeGroup"></path>
                    </g>
                </g>
            </g>
        </g>
    </g>
</svg>